<?xml version="1.0" encoding="UTF-8" standalone="no"?>
<!-- Generator: Adobe Illustrator 19.0.0, SVG Export Plug-In . SVG Version: 6.00 Build 0)  -->

<svg
   xmlns:dc="http://purl.org/dc/elements/1.1/"
   xmlns:cc="http://creativecommons.org/ns#"
   xmlns:rdf="http://www.w3.org/1999/02/22-rdf-syntax-ns#"
   xmlns:svg="http://www.w3.org/2000/svg"
   xmlns="http://www.w3.org/2000/svg"
   xmlns:sodipodi="http://sodipodi.sourceforge.net/DTD/sodipodi-0.dtd"
   xmlns:inkscape="http://www.inkscape.org/namespaces/inkscape"
   version="1.1"
   id="Capa_1"
   x="0px"
   y="0px"
   viewBox="0 0 490.282 490.282"
   style="enable-background:new 0 0 490.282 490.282;"
   xml:space="preserve"
   sodipodi:docname="sendbutton-hover.svg"
   inkscape:version="0.92.3 (2405546, 2018-03-11)"><metadata
   id="metadata41"><rdf:RDF><cc:Work
       rdf:about=""><dc:format>image/svg+xml</dc:format><dc:type
         rdf:resource="http://purl.org/dc/dcmitype/StillImage" /></cc:Work></rdf:RDF></metadata><defs
   id="defs39" /><sodipodi:namedview
   pagecolor="#ffffff"
   bordercolor="#666666"
   borderopacity="1"
   objecttolerance="10"
   gridtolerance="10"
   guidetolerance="10"
   inkscape:pageopacity="0"
   inkscape:pageshadow="2"
   inkscape:window-width="1366"
   inkscape:window-height="705"
   id="namedview37"
   showgrid="false"
   inkscape:zoom="0.48135562"
   inkscape:cx="245.14101"
   inkscape:cy="245.14101"
   inkscape:window-x="0"
   inkscape:window-y="30"
   inkscape:window-maximized="1"
   inkscape:current-layer="Capa_1" />
<g
   id="g4"
   style="fill:#6799b0;fill-opacity:1">
	<path
   d="M0.043,245.197c0.6,10.1,7.3,18.6,17,21.5l179.6,54.3l6.6,123.8c0.3,4.9,3.6,9.2,8.3,10.8c1.3,0.5,2.7,0.7,4,0.7   c3.5,0,6.8-1.4,9.2-4.1l63.5-70.3l90,62.3c4,2.8,8.7,4.3,13.6,4.3c11.3,0,21.1-8,23.5-19.2l74.7-380.7c0.9-4.4-0.8-9-4.2-11.8   c-3.5-2.9-8.2-3.6-12.4-1.9l-459,186.8C5.143,225.897-0.557,235.097,0.043,245.197z M226.043,414.097l-4.1-78.1l46,31.8   L226.043,414.097z M391.443,423.597l-163.8-113.4l229.7-222.2L391.443,423.597z M432.143,78.197l-227.1,219.7l-179.4-54.2   L432.143,78.197z"
   id="path2"
   style="fill:#6799b0;fill-opacity:1" />
</g>
<g
   id="g6">
</g>
<g
   id="g8">
</g>
<g
   id="g10">
</g>
<g
   id="g12">
</g>
<g
   id="g14">
</g>
<g
   id="g16">
</g>
<g
   id="g18">
</g>
<g
   id="g20">
</g>
<g
   id="g22">
</g>
<g
   id="g24">
</g>
<g
   id="g26">
</g>
<g
   id="g28">
</g>
<g
   id="g30">
</g>
<g
   id="g32">
</g>
<g
   id="g34">
</g>
</svg>